<?xml version="1.0" standalone="no"?>
<!DOCTYPE svg PUBLIC "-//W3C//DTD SVG 20010904//EN"
 "http://www.w3.org/TR/2001/REC-SVG-20010904/DTD/svg10.dtd">
<svg version="1.0" xmlns="http://www.w3.org/2000/svg"
 width="480.000000pt" height="480.000000pt" viewBox="0 0 480.000000 480.000000"
 preserveAspectRatio="xMidYMid meet">

<g transform="translate(0.000000,480.000000) scale(0.100000,-0.100000)"
fill="#000000" stroke="none">
<path d="M1551 3414 c-112 -113 -53 -389 102 -470 49 -26 79 5 112 119 9 31
21 57 26 57 4 0 61 -66 125 -147 65 -82 132 -165 151 -186 37 -42 44 -94 18
-143 -8 -16 -15 -36 -15 -44 0 -8 -16 -27 -35 -43 -19 -15 -79 -80 -133 -145
-55 -65 -173 -187 -262 -272 -263 -250 -374 -388 -432 -537 -16 -41 -27 -77
-25 -80 3 -2 11 13 17 34 18 55 67 150 110 213 49 71 157 188 354 380 87 85
201 205 253 265 52 61 108 120 124 133 28 23 29 23 29 3 0 -11 -5 -23 -10 -26
-6 -4 -38 -48 -71 -98 -69 -106 -50 -87 29 28 l54 77 38 -37 38 -37 -64 -89
c-159 -221 -291 -470 -362 -684 -42 -126 -83 -304 -81 -352 1 -15 7 7 14 49
55 323 200 649 433 976 65 90 67 92 99 86 44 -8 75 1 112 32 l31 26 18 -20 c9
-12 188 -200 396 -419 387 -406 811 -833 828 -833 5 0 -96 105 -225 233 -224
222 -1008 1040 -1015 1058 -8 19 18 7 37 -17 68 -86 1202 -1244 1218 -1244 5
0 -95 105 -221 233 -127 127 -353 358 -501 512 -149 154 -326 337 -393 406
-67 69 -122 130 -122 136 0 5 12 16 26 24 15 7 44 34 66 58 l39 45 33 -35
c836 -872 1232 -1277 1240 -1268 3 2 -95 106 -217 229 -122 124 -378 387 -568
585 -535 557 -480 494 -471 535 26 128 -45 250 -147 250 -23 0 -55 -7 -72 -15
l-29 -16 -208 208 c-178 180 -218 215 -287 252 -44 24 -99 46 -122 49 -39 4
-46 1 -82 -34z m162 -10 c102 -51 175 -115 386 -333 l213 -221 -11 -48 c-13
-50 -56 -132 -70 -132 -13 0 -146 160 -258 310 -56 74 -118 151 -139 170 -42
38 -30 18 26 -45 20 -22 81 -101 136 -175 56 -74 123 -159 149 -188 26 -29 45
-55 43 -58 -8 -8 -106 102 -251 285 -76 94 -143 171 -150 171 -8 0 -23 -31
-36 -74 -39 -129 -60 -141 -132 -77 -70 61 -102 130 -107 226 -5 100 9 156 49
189 40 34 85 34 152 0z m698 -467 c46 -30 79 -98 79 -162 0 -81 -63 -166 -162
-216 -34 -17 -45 -19 -69 -9 -30 13 -59 49 -59 74 0 8 9 18 20 21 28 9 64 67
90 144 l21 64 -37 38 -36 37 28 16 c41 22 86 20 125 -7z m-256 -247 c16 -16
26 -32 23 -36 -12 -11 -64 24 -65 45 -2 29 8 26 42 -9z m55 -31 c0 -6 -4 -7
-10 -4 -5 3 -10 11 -10 16 0 6 5 7 10 4 6 -3 10 -11 10 -16z m-48 -16 c9 -3
19 -15 22 -28 8 -32 72 -85 101 -85 33 0 32 -23 0 -49 -58 -45 -131 -31 -182
36 -21 27 -25 41 -20 74 6 48 24 72 46 63 9 -3 23 -8 33 -11z"/>
<path d="M1579 3386 c-13 -6 -30 -23 -37 -36 -19 -35 -9 -156 17 -216 22 -50
90 -139 98 -130 3 3 -9 22 -27 43 -55 62 -84 137 -85 219 0 82 21 119 62 111
13 -2 23 -1 23 3 0 15 -27 18 -51 6z"/>
<path d="M1852 2220 c-65 -103 -81 -120 -226 -246 -86 -74 -187 -171 -224
-214 -64 -76 -131 -185 -147 -240 -11 -40 11 -11 24 32 19 59 88 157 170 242
95 98 280 260 288 252 3 -3 0 -12 -7 -21 -7 -9 -10 -18 -7 -21 3 -3 13 8 21
25 14 27 118 194 171 275 9 14 15 26 12 26 -3 0 -37 -50 -75 -110z"/>
<path d="M1697 1955 c-24 -50 -20 -58 4 -12 11 22 19 41 17 43 -3 2 -12 -12
-21 -31z"/>
<path d="M1656 1860 c-22 -56 -19 -65 5 -11 11 24 18 46 15 48 -2 2 -11 -14
-20 -37z"/>
<path d="M1606 1714 c-4 -14 -5 -28 -3 -31 3 -2 8 8 11 23 4 14 5 28 3 31 -3
2 -8 -8 -11 -23z"/>
<path d="M1585 1640 c-4 -17 -5 -34 -2 -36 2 -3 7 10 11 27 3 18 4 34 2 36 -2
3 -7 -10 -11 -27z"/>
<path d="M1571 1574 c0 -11 3 -14 6 -6 3 7 2 16 -1 19 -3 4 -6 -2 -5 -13z"/>
<path d="M1562 1525 c0 -16 2 -22 5 -12 2 9 2 23 0 30 -3 6 -5 -1 -5 -18z"/>
<path d="M1552 1465 c0 -16 2 -22 5 -12 2 9 2 23 0 30 -3 6 -5 -1 -5 -18z"/>
<path d="M1543 1380 c0 -25 2 -35 4 -22 2 12 2 32 0 45 -2 12 -4 2 -4 -23z"/>
</g>
</svg>
